<?xml version="1.0" encoding="UTF-8"?>
<svg width="300px" height="300px" viewBox="0 0 300 300" version="1.1" xmlns="http://www.w3.org/2000/svg" xmlns:xlink="http://www.w3.org/1999/xlink">
    <!-- Generator: Sketch 63.1 (92452) - https://sketch.com -->
    <title>Oval@1x</title>
    <desc>Created with Sketch.</desc>
    <defs>
        <filter x="0.0%" y="0.0%" width="100.0%" height="100.0%" filterUnits="objectBoundingBox" id="filter-1">
            <feGaussianBlur stdDeviation="0" in="SourceGraphic"></feGaussianBlur>
        </filter>
        <filter x="0.0%" y="0.0%" width="100.0%" height="100.0%" filterUnits="objectBoundingBox" id="filter-2">
            <feGaussianBlur stdDeviation="0" in="SourceGraphic"></feGaussianBlur>
        </filter>
    </defs>
    <g id="Page-1" stroke="none" stroke-width="1" fill="none" fill-rule="evenodd">
        <circle id="Oval" fill="#73DBA6" filter="url(#filter-1)" cx="150" cy="150" r="150"></circle>
        <polygon id="Rectangle" fill="#000501" points="78 96 96 96 96 290.503906 78.2773438 282.679687"></polygon>
        <path d="M94,94 C99.2389494,100.183357 104.750668,105.196378 110.535156,109.039062 C116.319644,112.881747 125.900374,117.894768 139.277344,124.078125 C121.02474,119.408854 108.932292,117.074219 103,117.074219 C97.0677083,117.074219 94.0677083,119.408854 94,124.078125 L94,94 Z" id="Path" fill="#000501"></path>
        <path d="M219,53 C224.238949,59.1833569 229.750668,64.1963778 235.535156,68.0390625 C241.319644,71.8817472 250.900374,76.8947681 264.277344,83.078125 C246.02474,78.4088542 233.932292,76.0742188 228,76.0742188 C222.067708,76.0742188 219.067708,78.4088542 219,83.078125 L219,53 Z" id="Path-Copy-6" fill="#000501"></path>
        <path d="M34,96 C39.2389494,102.183357 44.7506681,107.196378 50.5351562,111.039062 C56.3196444,114.881747 65.9003736,119.894768 79.2773438,126.078125 C61.0247396,121.408854 48.9322917,119.074219 43,119.074219 C37.0677083,119.074219 34.0677083,121.408854 34,126.078125 L34,96 Z" id="Path-Copy-5" fill="#000501" transform="translate(56.638672, 111.039062) scale(-1, 1) rotate(2.000000) translate(-56.638672, -111.039062) "></path>
        <path d="M156,54 C161.238949,60.1833569 166.750668,65.1963778 172.535156,69.0390625 C178.319644,72.8817472 187.900374,77.8947681 201.277344,84.078125 C183.02474,79.4088542 170.932292,77.0742188 165,77.0742188 C159.067708,77.0742188 156.067708,79.4088542 156,84.078125 L156,54 Z" id="Path-Copy-9" fill="#000501" transform="translate(178.638672, 69.039062) scale(-1, 1) rotate(2.000000) translate(-178.638672, -69.039062) "></path>
        <path d="M95,126 C100.238949,132.183357 105.750668,137.196378 111.535156,141.039062 C117.319644,144.881747 126.900374,149.894768 140.277344,156.078125 C122.02474,151.408854 109.932292,149.074219 104,149.074219 C98.0677083,149.074219 95.0677083,151.408854 95,156.078125 L95,126 Z" id="Path-Copy" fill="#000501"></path>
        <path d="M219,83 C224.238949,89.1833569 229.750668,94.1963778 235.535156,98.0390625 C241.319644,101.881747 250.900374,106.894768 264.277344,113.078125 C246.02474,108.408854 233.932292,106.074219 228,106.074219 C222.067708,106.074219 219.067708,108.408854 219,113.078125 L219,83 Z" id="Path-Copy-7" fill="#000501"></path>
        <path d="M33,128 C38.2389494,134.183357 43.7506681,139.196378 49.5351562,143.039062 C55.3196444,146.881747 64.9003736,151.894768 78.2773438,158.078125 C60.0247396,153.408854 47.9322917,151.074219 42,151.074219 C36.0677083,151.074219 33.0677083,153.408854 33,158.078125 L33,128 Z" id="Path-Copy-4" fill="#000501" transform="translate(55.638672, 143.039062) scale(-1, 1) translate(-55.638672, -143.039062) "></path>
        <path d="M156,83 C161.238949,89.1833569 166.750668,94.1963778 172.535156,98.0390625 C178.319644,101.881747 187.900374,106.894768 201.277344,113.078125 C183.02474,108.408854 170.932292,106.074219 165,106.074219 C159.067708,106.074219 156.067708,108.408854 156,113.078125 L156,83 Z" id="Path-Copy-10" fill="#000501" transform="translate(178.638672, 98.039062) scale(-1, 1) translate(-178.638672, -98.039062) "></path>
        <path d="M95,156 C100.238949,162.183357 105.750668,167.196378 111.535156,171.039062 C117.319644,174.881747 126.900374,179.894768 140.277344,186.078125 C122.02474,181.408854 109.932292,179.074219 104,179.074219 C98.0677083,179.074219 95.0677083,181.408854 95,186.078125 L95,156 Z" id="Path-Copy-2" fill="#000501"></path>
        <path d="M219,113 C224.238949,119.183357 229.750668,124.196378 235.535156,128.039062 C241.319644,131.881747 250.900374,136.894768 264.277344,143.078125 C246.02474,138.408854 233.932292,136.074219 228,136.074219 C222.067708,136.074219 219.067708,138.408854 219,143.078125 L219,113 Z" id="Path-Copy-8" fill="#000501"></path>
        <path d="M33,156 C38.2389494,162.183357 43.7506681,167.196378 49.5351562,171.039062 C55.3196444,174.881747 64.9003736,179.894768 78.2773438,186.078125 C60.0247396,181.408854 47.9322917,179.074219 42,179.074219 C36.0677083,179.074219 33.0677083,181.408854 33,186.078125 L33,156 Z" id="Path-Copy-3" fill="#000501" transform="translate(55.638672, 171.039062) scale(-1, 1) translate(-55.638672, -171.039062) "></path>
        <path d="M156,112 C161.238949,118.183357 166.750668,123.196378 172.535156,127.039062 C178.319644,130.881747 187.900374,135.894768 201.277344,142.078125 C183.02474,137.408854 170.932292,135.074219 165,135.074219 C159.067708,135.074219 156.067708,137.408854 156,142.078125 L156,112 Z" id="Path-Copy-11" fill="#000501" transform="translate(178.638672, 127.039062) scale(-1, 1) translate(-178.638672, -127.039062) "></path>
        <polygon id="Triangle" fill="#000000" points="210 47 219 53 201 53"></polygon>
        <polygon id="Triangle-Copy" fill="#000000" points="87 90 96 96 78 96"></polygon>
        <path d="M201,53 L219,53 L219,284.789063 L201.788409,291.5625 C201.788409,340.378472 201.788409,338.12066 201.788409,284.789063 C201.788409,231.457465 201.525606,154.194444 201,53 Z" id="Rectangle" fill="#000501" filter="url(#filter-2)"></path>
    </g>
</svg>